# xmcd
#
# Track frame offsets:
#	150
#	12889
#	25464
#	40075
#	60135
#	73815
#	92423
#	106075
#	117077
#	130316
#	142578
#	155909
#
# Disc length: 2226
#
# Revision: 1
# Processed by: cddbd v1.5.1PL0 Copyright (c) Steve Scherf et al.
# Submitted via: OrangeCD 5.2
# Normalized: r0:DSETVAR1
#
DISCID=9108b00c
DTITLE=Various Artist - Virgin Megamusic Blues
DYEAR=1900
DGENRE=Blues
TTITLE0=B.B. King - Everyday I Have the Blues
TTITLE1=Elmore James - Standing at the Crossroads
TTITLE2=Muddy Waters - Rock Me
TTITLE3=Mississippi Fred McDowell - Good Morning Little School Girl
TTITLE4=T-Bone Walker - Call it Stormy Monday (But Tuesday is just as bad)
TTITLE5=Albert Collins - Trash Talkin
TTITLE6=Snooks Eaglin - C.C. Rider
TTITLE7=Junior Parker - The Things I Used To Do
TTITLE8=John Lee Hooker - Come Back Baby
TTITLE9=Howlin Wolf - Moanin' at Midnight
TTITLE10=Etta James - The Wallflower
TTITLE11=Lightnin' Hopkins - Shotgun Blues
EXTD=
EXTT0=
EXTT1=
EXTT2=
EXTT3=
EXTT4=
EXTT5=
EXTT6=
EXTT7=
EXTT8=
EXTT9=
EXTT10=
EXTT11=
PLAYORDER=
